<?xml version="1.0" encoding="iso-8859-1"?>
<!-- Generator: Adobe Illustrator 19.0.0, SVG Export Plug-In . SVG Version: 6.00 Build 0)  -->
<svg version="1.1" id="Capa_1" xmlns="http://www.w3.org/2000/svg" xmlns:xlink="http://www.w3.org/1999/xlink" x="0px" y="0px"
	 viewBox="0 0 496.008 496.008" style="enable-background:new 0 0 496.008 496.008;" xml:space="preserve">
<g>
	<path style="fill:#FFA64D;" d="M248.004,320l-96,64v40h24v8h32l5.176-25.864c1.64-8.216,8.856-14.136,17.24-14.136
		c9.712,0,17.584,7.872,17.584,17.584c0-9.712,7.872-17.584,17.584-17.584c8.384,0,15.6,5.92,17.24,14.136L288.004,432h32v-8h24v-40
		L248.004,320z"/>
	<path style="fill:#FFA64D;" d="M352.588,224.832L304.004,216h-16c0,0-8,24-40,24s-40-24-40-24h-16l-48.584,8.832
		c-22.824,4.152-39.416,24.032-39.416,47.224V320h48l64-24l5.448-21.792c1.496-6,6.888-10.208,13.072-10.208
		c7.448,0,13.48,6.032,13.48,13.48c0-7.448,6.032-13.48,13.48-13.48c6.184,0,11.576,4.208,13.072,10.208L280.004,296l64,24h48
		v-47.944C392.004,248.864,375.412,228.984,352.588,224.832z"/>
	<path style="fill:#FFA64D;" d="M408.004,392h-64v32h-24v64h88c26.512,0,48-21.488,48-48S434.516,392,408.004,392z"/>
	<path style="fill:#FFA64D;" d="M88.004,392h64v32h24v64h-88c-26.512,0-48-21.488-48-48S61.492,392,88.004,392z"/>
</g>
<g>
	<path style="fill:#333333;" d="M408.004,384h-19.296c0.544-0.88,1.112-1.744,1.584-2.68c6.352-12.72,9.712-26.944,9.712-41.152
		v-68.104c0-27.08-19.336-50.256-45.984-55.104l-48.584-8.832l-4.648-0.024c21.952-14.512,37.536-37.8,41.888-64.824
		c14.448-3.08,25.328-15.92,25.328-31.28s-10.88-28.2-25.336-31.28C335.316,35.04,295.732,0,248.004,0s-87.312,35.04-94.664,80.72
		c-14.456,3.08-25.336,15.92-25.336,31.28s10.88,28.2,25.336,31.28c4.336,26.952,19.848,50.2,41.712,64.72h-3.048l-50.016,8.96
		c-26.648,4.848-45.984,28.024-45.984,55.104v68.104c0,14.208,3.36,28.44,9.712,41.168c0.472,0.936,1.032,1.792,1.576,2.672H88.004
		c-30.872,0-56,25.128-56,56s25.128,56,56,56h152c2.928,0,5.64-0.848,8-2.224c2.36,1.368,5.072,2.216,8,2.216h152
		c30.872,0,56-25.128,56-56S438.876,384,408.004,384z M312.004,416v8h-17.44l-3.888-19.44C288.284,392.648,277.74,384,265.588,384
		c-6.824,0-12.992,2.72-17.584,7.088c-4.592-4.368-10.76-7.088-17.584-7.088c-12.152,0-22.696,8.648-25.088,20.56L201.444,424
		h-17.44v-8h-24v-16v-9.344l88-60.92l88,60.92V416H312.004z M349.932,380.832l-93.928-65.024V277.48c0-3.024,2.456-5.48,5.48-5.48
		c2.512,0,4.704,1.712,5.32,4.152l6.464,25.864L342.548,328h41.456v12.168c0,11.744-2.776,23.504-8.024,33.992
		c-3.04,6.072-9.144,9.84-15.92,9.84C356.428,384,352.924,382.904,349.932,380.832z M352.004,112c0,5.896-3.24,11-8,13.776V98.232
		C348.764,101,352.004,106.104,352.004,112z M248.004,16c38.632,0,70.952,27.528,78.384,64H169.62
		C177.052,43.528,209.372,16,248.004,16z M144.004,112c0-5.896,3.24-11,8-13.776v27.544C147.244,123,144.004,117.896,144.004,112z
		 M168.004,128V96h160v32c0,44.112-35.888,80-80,80S168.004,172.112,168.004,128z M276.86,219.552
		C272.644,224.96,264.084,232,248.004,232c-16.008,0-24.584-7.024-28.816-12.432c9.104,2.872,18.776,4.432,28.816,4.432
		C258.06,224,267.748,222.432,276.86,219.552z M112.004,272.064c0-19.344,13.816-35.896,32.84-39.36l47.88-8.704h10.264
		c4.832,8.536,17.392,24,45.024,24s40.184-15.464,45.024-24H303.3l47.872,8.704c19.016,3.464,32.832,20.016,32.832,39.36V312h-32
		v-16h-16v12.456l-49.256-18.472l-4.432-17.712c-2.392-9.584-10.96-16.272-20.832-16.272c-5.128,0-9.776,1.88-13.48,4.888
		c-3.696-3.008-8.344-4.888-13.48-4.888c-9.872,0-18.448,6.688-20.832,16.272l-4.432,17.712l-49.256,18.472V264h-16v48h-32V272.064z
		 M120.028,374.168c-5.248-10.504-8.024-22.264-8.024-34V328h41.456l69.288-25.984l6.464-25.864c0.616-2.44,2.8-4.152,5.312-4.152
		c3.024,0,5.48,2.456,5.48,5.48v38.328l-93.928,65.032c-2.992,2.064-6.496,3.16-10.128,3.16
		C129.172,384,123.068,380.224,120.028,374.168z M48.004,440c0-22.056,17.944-40,40-40h56v16h-56v16h80v48h-80
		C65.948,480,48.004,462.056,48.004,440z M184.004,480v-40h30.56l6.456-32.296c0.896-4.464,4.848-7.704,9.4-7.704
		c5.288,0,9.584,4.296,9.584,9.584V480H184.004z M256.004,409.584c0-5.288,4.296-9.584,9.584-9.584c4.544,0,8.496,3.24,9.4,7.704
		L281.444,440h30.56v40h-56V409.584z M408.004,480h-80v-48h80v-16h-56v-16h56c22.056,0,40,17.944,40,40S430.06,480,408.004,480z"/>
	<path style="fill:#333333;" d="M232.004,112h-16c0,4.408-3.584,8-8,8s-8-3.592-8-8h-16c0,13.232,10.768,24,24,24
		S232.004,125.232,232.004,112z"/>
	<path style="fill:#333333;" d="M288.004,136c13.232,0,24-10.768,24-24h-16c0,4.408-3.584,8-8,8s-8-3.592-8-8h-16
		C264.004,125.232,274.772,136,288.004,136z"/>
	<path style="fill:#333333;" d="M280.004,160h-16c0,8.824-7.176,16-16,16s-16-7.176-16-16h-16c0,17.648,14.352,32,32,32
		S280.004,177.648,280.004,160z"/>
	<rect x="336.004" y="264" style="fill:#333333;" width="16" height="16"/>
</g>
<g>
</g>
<g>
</g>
<g>
</g>
<g>
</g>
<g>
</g>
<g>
</g>
<g>
</g>
<g>
</g>
<g>
</g>
<g>
</g>
<g>
</g>
<g>
</g>
<g>
</g>
<g>
</g>
<g>
</g>
</svg>
