<?xml version="1.0" encoding="iso-8859-1"?>
<!-- Generator: Adobe Illustrator 19.0.0, SVG Export Plug-In . SVG Version: 6.00 Build 0)  -->
<svg xmlns="http://www.w3.org/2000/svg" xmlns:xlink="http://www.w3.org/1999/xlink" version="1.1" id="Layer_1" x="0px" y="0px" viewBox="0 0 512 512" style="enable-background:new 0 0 512 512;" xml:space="preserve" width="512" height="512">
<g>
	<g>
		<path style="fill:#49C3E0;" d="M319.524,7.5H192.476c-33.103,0-59.938,26.835-59.938,59.938v238.001h246.924V67.438    C379.462,34.335,352.627,7.5,319.524,7.5z"/>
		<path style="fill:#465059;" d="M173.129,305.439V67.438c0-10.668,8.679-19.348,19.348-19.348h127.048    c10.669,0,19.348,8.679,19.348,19.348v238.001H173.129z"/>
		<path style="fill:#465059;" d="M109.006,296.446c-4.293,0-7.376-1.377-10.307-4.607c-12.941-14.255-14.373-44.394-12.236-66.438    l-15.278-17.99l-15.278,17.99c-1.146,14.739-3.715,60.458,20.225,86.872c8.667,9.562,20.034,14.616,32.873,14.616h23.532v-30.443    H109.006z"/>
		<path style="fill:#465059;" d="M402.994,296.446c4.293,0,7.376-1.377,10.307-4.607c12.941-14.255,14.373-44.394,12.236-66.438    l15.278-17.99l15.278,17.99c1.146,14.739,3.715,60.458-20.225,86.872c-8.667,9.562-20.034,14.616-32.873,14.616h-23.532v-30.443    H402.994z"/>
		<rect x="236.72" y="328.44" style="fill:#465059;" width="38.56" height="146.97"/>
		<path style="fill:#00A5C6;" d="M402.994,311.667L402.994,311.667c-3.121-22.29-22.188-38.874-44.696-38.874H153.702    c-22.508,0-41.575,16.584-44.696,38.874v0c-2.486,17.753,11.3,33.603,29.226,33.603h235.535    C391.694,345.271,405.48,329.42,402.994,311.667z"/>
		<path style="fill:#3C474D;" d="M86.464,225.401l-15.278-17.99l-15.278,17.99c-0.466,5.998-1.168,17.129-0.223,30h30.541    C85.308,245.151,85.574,234.575,86.464,225.401z"/>
		<path style="fill:#49C3E0;" d="M90.726,189.421h-39.08c-9.935,0-17.99,8.054-17.99,17.99c0,9.935,8.054,17.99,17.99,17.99h39.08    c9.935,0,17.99-8.054,17.99-17.99C108.716,197.476,100.661,189.421,90.726,189.421z"/>
		<path style="fill:#00A5C6;" d="M58.656,207.411c0-9.936,8.054-17.99,17.99-17.99h-25c-9.935,0-17.99,8.054-17.99,17.99    s8.054,17.99,17.99,17.99h25C66.711,225.401,58.656,217.347,58.656,207.411z"/>
		<path style="fill:#3C474D;" d="M440.814,207.411l-15.278,17.99c0.889,9.175,1.156,19.75,0.237,30h30.541    c0.945-12.871,0.244-24.002-0.223-30L440.814,207.411z"/>
		<path style="fill:#49C3E0;" d="M421.274,189.421h39.08c9.935,0,17.99,8.054,17.99,17.99c0,9.935-8.054,17.99-17.99,17.99h-39.08    c-9.935,0-17.99-8.054-17.99-17.99C403.284,197.476,411.339,189.421,421.274,189.421z"/>
		<path style="fill:#00A5C6;" d="M428.284,207.411c0-9.936,8.054-17.99,17.99-17.99h-25c-9.935,0-17.99,8.054-17.99,17.99    s8.054,17.99,17.99,17.99h25C436.339,225.401,428.284,217.347,428.284,207.411z"/>
		<g>
			<path style="fill:#3C474D;" d="M398.743,460.189h-38.561v-30.781c0-6.155-5.007-11.162-11.162-11.162H162.981     c-6.155,0-11.162,5.007-11.162,11.162v30.781h-38.561v-30.781c0-27.417,22.306-49.723,49.723-49.723H349.02     c27.417,0,49.723,22.306,49.723,49.723V460.189z"/>
		</g>
		<circle style="fill:#49C3E0;" cx="132.538" cy="475.41" r="29.09"/>
		<path style="fill:#00A5C6;" d="M142.538,494.5c-16.066,0-29.09-13.024-29.09-29.09c0-5.469,1.512-10.583,4.136-14.953    c-8.468,5.085-14.136,14.356-14.136,24.953c0,16.066,13.024,29.09,29.09,29.09c10.597,0,19.868-5.668,24.953-14.136    C153.121,492.988,148.007,494.5,142.538,494.5z"/>
		<circle style="fill:#49C3E0;" cx="379.462" cy="475.41" r="29.09"/>
		<path style="fill:#00A5C6;" d="M389.462,494.5c-16.066,0-29.09-13.024-29.09-29.09c0-5.469,1.512-10.583,4.136-14.953    c-8.468,5.085-14.136,14.356-14.136,24.953c0,16.066,13.024,29.09,29.09,29.09c10.597,0,19.868-5.668,24.953-14.136    C400.045,492.988,394.931,494.5,389.462,494.5z"/>
		<circle style="fill:#49C3E0;" cx="256" cy="475.41" r="29.09"/>
		<path style="fill:#00A5C6;" d="M266,494.5c-16.066,0-29.09-13.024-29.09-29.09c0-5.469,1.512-10.583,4.136-14.953    c-8.468,5.085-14.136,14.356-14.136,24.953c0,16.066,13.024,29.09,29.09,29.09c10.597,0,19.868-5.668,24.953-14.136    C276.583,492.988,271.469,494.5,266,494.5z"/>
	</g>
	<g>
		<path d="M198.144,150.11c-4.142,0-7.5,3.358-7.5,7.5v10.471c0,4.142,3.358,7.5,7.5,7.5s7.5-3.358,7.5-7.5V157.61    C205.644,153.468,202.286,150.11,198.144,150.11z"/>
		<path d="M313.857,175.581c4.142,0,7.5-3.358,7.5-7.5V157.61c0-4.142-3.358-7.5-7.5-7.5s-7.5,3.358-7.5,7.5v10.471    C306.357,172.223,309.715,175.581,313.857,175.581z"/>
		<path d="M275.216,161.706c-3.119-2.726-7.856-2.408-10.583,0.711c-2.085,2.386-5.231,3.754-8.633,3.754s-6.548-1.368-8.633-3.754    c-2.726-3.119-7.464-3.437-10.583-0.711c-3.119,2.726-3.437,7.464-0.711,10.583c4.934,5.645,12.197,8.882,19.927,8.882    s14.993-3.237,19.927-8.882C278.653,169.17,278.334,164.432,275.216,161.706z"/>
		<path d="M116.216,207.411c0-14.055-11.435-25.49-25.49-25.49h-39.08c-14.055,0-25.49,11.435-25.49,25.49    c0,12.8,9.485,23.423,21.795,25.219c-1.678,37.263,6.089,66.435,22.625,84.679c9.496,10.479,21.775,16.324,35.649,17.01    c1.17,2.017,2.525,3.94,4.08,5.728c7.032,8.085,17.211,12.723,27.927,12.723h90.988v19.415h-66.239    c-31.553,0-57.224,25.67-57.224,57.223v21.106c-6.08,6.536-9.809,15.286-9.809,24.896c0,20.176,16.414,36.59,36.589,36.59    c20.176,0,36.59-16.414,36.59-36.59c0-9.609-3.729-18.36-9.81-24.896v-21.106c0-2.02,1.643-3.663,3.663-3.663h66.239v24.767    c-6.081,6.536-9.811,15.287-9.811,24.897c0,20.176,16.414,36.59,36.59,36.59s36.59-16.414,36.59-36.59    c0-9.609-3.729-18.36-9.81-24.896v-24.768h66.239c2.02,0,3.662,1.643,3.662,3.663v21.106c-6.08,6.536-9.81,15.287-9.81,24.896    c0,20.176,16.414,36.59,36.59,36.59s36.59-16.414,36.59-36.59c0-9.609-3.729-18.36-9.81-24.896v-21.106    c0-31.553-25.67-57.223-57.223-57.223H282.78v-19.415h90.987c10.715,0,20.894-4.637,27.926-12.722    c1.555-1.789,2.911-3.712,4.081-5.729c13.874-0.687,26.152-6.532,35.65-17.01c16.536-18.245,24.302-47.416,22.624-84.679    c12.31-1.796,21.795-12.418,21.795-25.219c0-14.055-11.435-25.49-25.49-25.49h-39.08c-14.055,0-25.49,11.435-25.49,25.49    c0,13.142,9.997,23.99,22.785,25.345c1.077,19.609-1.138,43.373-10.823,54.042c-1.512,1.666-2.578,2.147-4.752,2.147h-0.825    c-3.999-6.011-9.19-11.143-15.207-15.075V67.438C386.962,30.252,356.709,0,319.524,0h-73.603c-4.142,0-7.5,3.358-7.5,7.5    s3.358,7.5,7.5,7.5h73.603c28.914,0,52.438,23.523,52.438,52.438v199.665c-1.302-0.35-2.62-0.644-3.946-0.894    c-3.199-0.605-6.462-0.916-9.719-0.916h-11.926V67.438c0-14.804-12.044-26.848-26.848-26.848H192.477    c-14.804,0-26.848,12.044-26.848,26.848v197.855h-11.927c-4.601,0-9.22,0.616-13.664,1.81V67.438    c0-28.915,23.524-52.438,52.438-52.438h23.445c4.142,0,7.5-3.358,7.5-7.5s-3.358-7.5-7.5-7.5h-23.445    c-37.186,0-67.438,30.252-67.438,67.438v206.433c-6.017,3.932-11.208,9.064-15.207,15.075h-0.825c-2.174,0-3.24-0.481-4.752-2.149    c-6.588-7.256-12.609-25.119-10.846-54.038C106.207,231.415,116.216,220.561,116.216,207.411z M41.156,207.411    c0-5.784,4.706-10.49,10.49-10.49h39.08c5.784,0,10.49,4.706,10.49,10.49s-4.706,10.49-10.49,10.49h-4.262H55.908h-4.262    C45.862,217.901,41.156,213.195,41.156,207.411z M132.538,497c-11.904,0-21.589-9.685-21.589-21.59    c0-6.588,2.975-12.487,7.642-16.45c3.877-3.29,8.862-5.139,13.948-5.139c5.054,0,10.099,1.868,13.95,5.141    c4.666,3.963,7.64,9.862,7.64,16.449C154.128,487.315,144.443,497,132.538,497z M256,497c-11.905,0-21.59-9.685-21.59-21.59    c0-11.657,9.946-21.589,21.59-21.589c11.744,0,21.59,9.866,21.59,21.589C277.59,487.315,267.905,497,256,497z M267.78,440.769    c-3.784-1.292-7.782-1.948-11.78-1.948c-3.997,0-7.995,0.66-11.779,1.947v-15.022h23.56V440.769z M379.462,497    c-11.905,0-21.59-9.685-21.59-21.59c0-6.586,2.973-12.484,7.638-16.448c3.839-3.261,8.91-5.142,13.951-5.142    c5.051,0,10.1,1.872,13.95,5.141c4.666,3.963,7.64,9.862,7.64,16.449C401.052,487.315,391.367,497,379.462,497z M391.242,429.408    v11.36c-3.781-1.288-7.787-1.948-11.78-1.948c-3.992,0-8.001,0.66-11.78,1.948v-11.36c0-10.291-8.372-18.663-18.662-18.663    H162.981c-10.291,0-18.663,8.372-18.663,18.663l0,11.36c-3.779-1.29-7.789-1.948-11.78-1.948c-3.993,0-7.999,0.662-11.78,1.948    v-11.36c0-23.282,18.941-42.223,42.224-42.223H349.02C372.301,387.185,391.242,406.126,391.242,429.408z M267.78,372.185h-23.56    v-19.415h23.56V372.185z M410.785,207.411c0-5.784,4.706-10.49,10.49-10.49h39.08c5.784,0,10.49,4.706,10.49,10.49    s-4.706,10.49-10.49,10.49h-4.262h-30.556h-4.262C415.49,217.901,410.785,213.195,410.785,207.411z M408.84,303.228    c3.794-1.007,7.057-3.089,10.014-6.349c6.912-7.614,11.502-19.15,13.645-34.288c1.267-8.949,1.642-19.257,1.11-29.69h15.435    c1.518,33.013-5.054,59.242-18.733,74.335c-5.423,5.983-12.115,9.844-19.641,11.388c0.001-0.012,0.001-0.024,0.002-0.036    c0.029-0.38,0.04-0.761,0.057-1.142C410.946,312.659,410.172,307.817,408.84,303.228z M173.129,280.293h114.126    c4.142,0,7.5-3.358,7.5-7.5s-3.358-7.5-7.5-7.5H180.629V67.438c0-6.533,5.315-11.848,11.848-11.848h127.048    c6.533,0,11.848,5.315,11.848,11.848v197.855h-14.117c-4.142,0-7.5,3.358-7.5,7.5s3.358,7.5,7.5,7.5h41.043    c3.525,0,7.05,0.508,10.434,1.496c13.343,3.895,23.857,15.047,26.535,29.112c0.006,0.031,0.014,0.062,0.02,0.094    c2.516,13.412-7.501,26.775-21.518,26.775c0,0-235.514,0-235.535,0c-14.105,0-24.067-13.237-21.513-26.8    c3.281-17.427,19.253-30.677,36.983-30.677H173.129z M93.146,296.878c2.958,3.26,6.22,5.342,10.014,6.349    c-0.235,0.81-0.444,1.628-0.64,2.451c-1.007,4.226-1.518,8.602-1.189,12.945c-7.525-1.544-14.217-5.404-19.64-11.388    c-13.68-15.093-20.252-41.322-18.734-74.335h15.435c-0.532,10.435-0.156,20.742,1.11,29.69    C81.644,277.73,86.235,289.266,93.146,296.878z"/>
	</g>
</g>















</svg>
